<?xml version="1.0" encoding="UTF-8"?>
<svg id="Layer_1" data-name="Layer 1" xmlns="http://www.w3.org/2000/svg" xmlns:xlink="http://www.w3.org/1999/xlink" viewBox="0 0 379 379">
  <defs>
    <style>
      .cls-1 {
        fill: #fff;
      }

      .cls-2 {
        fill: url(#linear-gradient);
      }
    </style>
    <linearGradient id="linear-gradient" x1="30.34" y1="81.39" x2="343.88" y2="294.36" gradientUnits="userSpaceOnUse">
      <stop offset="0" stop-color="#0e1138"/>
      <stop offset="0" stop-color="#272f5e"/>
      <stop offset=".5" stop-color="#07070c"/>
      <stop offset="1" stop-color="#283060"/>
    </linearGradient>
  </defs>
  <circle class="cls-2" cx="189.5" cy="189.5" r="189.5"/>
  <g>
    <path class="cls-1" d="M118.22,315.87l-3.83,6.45-.58-.36c.73-1.76,.86-3.47,.41-5.1-.46-1.64-1.3-2.85-2.54-3.62-.96-.6-1.87-.82-2.75-.66-.88,.16-1.53,.58-1.94,1.24-.26,.42-.4,.86-.41,1.31,0,.61,.16,1.32,.49,2.13,.25,.59,.92,1.77,2.02,3.56,1.54,2.5,2.4,4.48,2.56,5.94,.16,1.46-.16,2.81-.95,4.07-1,1.59-2.48,2.58-4.44,2.94-1.96,.37-3.9-.05-5.81-1.25-.6-.38-1.13-.79-1.59-1.25s-.98-1.11-1.58-1.95c-.33-.47-.64-.8-.93-.98-.24-.15-.56-.22-.95-.2s-.79,.16-1.2,.44l-.52-.33,4.52-7.2,.52,.33c-.86,2.28-1.03,4.33-.52,6.13,.51,1.8,1.44,3.13,2.8,3.98,1.05,.66,2.07,.9,3.05,.72,.98-.18,1.71-.65,2.19-1.41,.28-.45,.44-.96,.46-1.53,.03-.57-.09-1.2-.34-1.89-.25-.69-.8-1.72-1.66-3.11-1.2-1.94-1.99-3.45-2.37-4.53-.38-1.08-.55-2.11-.49-3.11,.06-1,.36-1.94,.92-2.83,.95-1.52,2.32-2.46,4.11-2.83,1.79-.37,3.53-.02,5.22,1.04,.62,.39,1.17,.84,1.66,1.35,.37,.39,.78,.93,1.22,1.64,.44,.7,.79,1.13,1.04,1.29,.24,.15,.48,.2,.72,.14,.23-.06,.59-.34,1.07-.84l.42,.26Z"/>
    <path class="cls-1" d="M149.43,329.89l-.22,.57c-.73-.17-1.34-.17-1.83,0-.68,.24-1.95,1.12-3.8,2.63l-7.44,5.9-1.92,5.09c-.41,1.09-.61,1.78-.59,2.09,.01,.31,.15,.62,.41,.95,.26,.33,.67,.6,1.23,.81l1.18,.45-.22,.58-11.82-4.46,.22-.58,1.1,.42c.62,.24,1.15,.31,1.6,.23,.32-.04,.63-.21,.92-.51,.21-.21,.51-.84,.91-1.89l1.59-4.22-1.55-10.89c-.31-2.15-.61-3.46-.89-3.93-.28-.47-.76-.83-1.43-1.1l.22-.57,10.1,3.81-.22,.58-.45-.17c-.61-.23-1.07-.3-1.38-.22s-.5,.22-.58,.42c-.14,.37-.08,1.47,.18,3.28l1.17,8.41,6.19-4.92c1.53-1.2,2.39-2.05,2.58-2.56,.11-.28,.06-.56-.14-.85-.25-.39-.84-.79-1.77-1.2l.22-.57,6.43,2.43Z"/>
    <path class="cls-1" d="M172.69,333.65l-1.02,7.44-.67-.11c-.02-1.91-.55-3.53-1.61-4.86-1.06-1.33-2.31-2.11-3.75-2.35-1.11-.18-2.04-.02-2.79,.47-.75,.49-1.18,1.12-1.31,1.9-.08,.49-.04,.95,.13,1.37,.23,.56,.66,1.16,1.28,1.77,.46,.44,1.54,1.27,3.25,2.49,2.39,1.7,3.95,3.19,4.67,4.47,.71,1.28,.95,2.65,.71,4.12-.3,1.86-1.28,3.34-2.95,4.44-1.66,1.1-3.61,1.48-5.84,1.12-.7-.11-1.35-.29-1.95-.53-.6-.24-1.34-.64-2.21-1.18-.49-.3-.9-.48-1.24-.54-.28-.05-.6,.01-.95,.18-.35,.17-.66,.46-.93,.88l-.61-.1,1.36-8.39,.61,.1c.1,2.44,.73,4.39,1.9,5.85,1.17,1.46,2.55,2.32,4.13,2.58,1.22,.2,2.25,.02,3.09-.53s1.32-1.27,1.47-2.15c.08-.52,.03-1.06-.17-1.59-.2-.54-.55-1.07-1.04-1.61-.5-.53-1.41-1.27-2.74-2.22-1.86-1.32-3.18-2.4-3.95-3.25-.77-.84-1.33-1.73-1.66-2.67-.34-.94-.42-1.93-.25-2.97,.29-1.77,1.18-3.17,2.68-4.21,1.5-1.04,3.24-1.39,5.22-1.07,.72,.12,1.41,.32,2.06,.6,.49,.21,1.08,.56,1.76,1.03,.68,.47,1.17,.74,1.46,.78,.28,.05,.52,0,.71-.15,.19-.15,.41-.54,.66-1.19l.49,.08Z"/>
    <path class="cls-1" d="M204.23,334.6l.19,6.09-.6,.02c-.4-1.39-.82-2.39-1.27-2.99-.45-.6-1.06-1.07-1.82-1.41-.43-.19-1.17-.26-2.22-.23l-1.68,.05,.54,17.36c.04,1.15,.12,1.87,.26,2.15,.14,.28,.39,.53,.77,.73s.89,.3,1.53,.28l.75-.02,.02,.61-11.78,.37-.02-.61,.75-.02c.65-.02,1.17-.15,1.57-.4,.28-.16,.5-.44,.66-.82,.11-.27,.15-.97,.12-2.1l-.54-17.36-1.63,.05c-1.52,.05-2.61,.4-3.27,1.07-.93,.93-1.5,2.22-1.71,3.89l-.63,.02-.19-6.09,20.21-.63Z"/>
    <path class="cls-1" d="M221.89,332.7l2.15,8.91,.44-.1c1.39-.33,2.29-1.01,2.7-2.04,.41-1.02,.5-2.4,.26-4.15l.61-.15,2.76,11.46-.61,.15c-.43-1.22-.95-2.17-1.55-2.87-.61-.7-1.22-1.12-1.83-1.26-.61-.14-1.44-.09-2.49,.16l1.49,6.17c.29,1.21,.52,1.93,.69,2.17,.17,.25,.41,.42,.73,.52,.32,.11,.79,.08,1.42-.07l1.31-.32c2.04-.49,3.57-1.36,4.57-2.6,1-1.24,1.54-2.9,1.61-4.97l.6-.14,.69,7.19-18.92,4.56-.14-.6,.73-.17c.63-.15,1.12-.39,1.45-.71,.24-.22,.4-.53,.46-.93,.06-.29-.05-.98-.31-2.08l-3.47-14.4c-.24-.99-.41-1.59-.52-1.8-.2-.35-.47-.59-.81-.73-.48-.2-1.08-.22-1.79-.05l-.73,.17-.14-.6,18.32-4.42,1.56,6.47-.61,.15c-.69-1.51-1.41-2.54-2.14-3.09-.73-.55-1.65-.87-2.76-.94-.65-.05-1.8,.13-3.46,.53l-2.26,.54Z"/>
    <path class="cls-1" d="M262.56,332.2l-1.34-15.99,8.15-4.18,.28,.55-.65,.33c-.59,.3-1.01,.65-1.26,1.04-.18,.26-.25,.6-.23,1,.01,.29,.27,.94,.78,1.93l6.77,13.21c.53,1.02,.91,1.64,1.15,1.84,.24,.2,.58,.31,1.01,.33s.93-.11,1.49-.4l.65-.33,.28,.55-10.46,5.36-.28-.55,.65-.33c.59-.3,1.01-.65,1.26-1.04,.18-.26,.25-.6,.23-1.01-.01-.29-.28-.94-.79-1.94l-7.61-14.85,1.69,22.21-.35,.18-17.1-14.14,7.24,14.11c.51,.98,.84,1.58,1.01,1.78,.38,.43,.86,.69,1.45,.78s1.34-.1,2.25-.57l.28,.55-6.85,3.52-.28-.55,.21-.11c.45-.22,.83-.5,1.13-.85s.49-.7,.56-1.06c.07-.36,.03-.79-.1-1.31-.04-.12-.28-.62-.74-1.52l-6.5-12.67c-.52-1.01-.9-1.62-1.14-1.82-.24-.2-.57-.3-1.01-.32-.43-.02-.93,.11-1.49,.4l-.63,.33-.28-.55,8.18-4.2,12.4,10.32Z"/>
  </g>
  <g>
    <path class="cls-1" d="M54.99,286.23l7.5-5.27-.26-.37c-.82-1.17-1.78-1.76-2.88-1.77-1.1,0-2.42,.42-3.95,1.28l-.36-.52,9.65-6.77,.36,.52c-.97,.85-1.67,1.68-2.1,2.5-.43,.82-.59,1.54-.5,2.17,.09,.62,.45,1.38,1.07,2.25l5.19-3.64c1.01-.71,1.6-1.19,1.77-1.44s.24-.54,.22-.87c-.02-.34-.22-.77-.58-1.29l-.77-1.1c-1.21-1.72-2.57-2.82-4.1-3.3s-3.26-.37-5.21,.32l-.35-.5,6.44-3.28,11.18,15.92-.5,.35-.43-.61c-.38-.53-.77-.9-1.19-1.09-.29-.15-.64-.17-1.03-.08-.29,.05-.89,.4-1.82,1.05l-12.12,8.51c-.83,.58-1.33,.97-1.49,1.15-.25,.31-.38,.65-.38,1.02-.01,.52,.19,1.08,.61,1.68l.43,.61-.5,.35-10.83-15.42,5.45-3.83,.36,.52c-1.15,1.2-1.84,2.24-2.09,3.12-.25,.88-.2,1.85,.14,2.91,.19,.62,.78,1.63,1.76,3.03l1.34,1.9Z"/>
    <path class="cls-1" d="M51.02,252.56l-16.04,.63-3.82-8.33,.56-.26,.3,.66c.28,.6,.6,1.04,.98,1.3,.26,.19,.58,.28,.99,.28,.29,0,.95-.23,1.96-.7l13.49-6.18c1.05-.48,1.68-.83,1.89-1.07,.21-.23,.34-.56,.38-.99,.04-.43-.07-.93-.33-1.51l-.3-.66,.56-.26,4.9,10.69-.56,.26-.3-.66c-.28-.6-.6-1.04-.98-1.3-.26-.19-.59-.28-1-.27-.29,0-.95,.24-1.98,.71l-15.17,6.95,22.27-.71,.17,.36-14.88,16.46,14.41-6.61c1.01-.46,1.61-.77,1.82-.93,.44-.36,.72-.83,.84-1.42s-.04-1.34-.47-2.28l.56-.26,3.21,7-.56,.26-.1-.21c-.2-.46-.46-.85-.8-1.17s-.68-.52-1.03-.6c-.35-.08-.79-.07-1.32,.04-.12,.03-.64,.26-1.55,.68l-12.95,5.94c-1.04,.48-1.66,.83-1.86,1.06-.21,.23-.33,.56-.37,.99s.07,.93,.34,1.51l.3,.65-.56,.26-3.83-8.36,10.86-11.93Z"/>
    <path class="cls-1" d="M39.99,229.28l6.04-1.56c1.18-.3,1.9-.57,2.17-.79s.45-.54,.53-.96c.09-.42,0-1.12-.25-2.1l.59-.15,2.86,11.08-.59,.15c-.26-1.01-.53-1.67-.81-1.98-.28-.31-.59-.5-.93-.57s-1.1,.05-2.27,.35l-14.15,3.65c-1.18,.3-1.9,.57-2.17,.79-.27,.22-.45,.54-.53,.95s0,1.12,.25,2.11l-.59,.15-2.45-9.5c-.81-3.13-.83-5.52-.06-7.17,.76-1.65,1.98-2.69,3.65-3.12,1.41-.37,2.74-.24,3.97,.38,1.23,.62,2.23,1.65,2.99,3.1,.53,.97,1.11,2.7,1.75,5.17Zm-10.67,2.75l9.42-2.43c-.07-.36-.13-.63-.18-.81-.34-1.31-.99-2.21-1.94-2.72-.96-.51-2.25-.55-3.88-.13-1.62,.42-2.71,1.08-3.28,1.98-.57,.9-.67,2.05-.31,3.46l.17,.66Z"/>
    <path class="cls-1" d="M36.89,195.79h7.95s2.13,19.87,2.13,19.87l-.61,.07-.08-.74c-.07-.65-.24-1.16-.51-1.53-.18-.27-.47-.46-.86-.58-.28-.09-.98-.08-2.1,.04l-14.72,1.58c-1.14,.12-1.85,.26-2.13,.41-.27,.15-.5,.42-.67,.81-.18,.39-.23,.9-.16,1.53l.08,.74-.61,.07-1.28-11.93,.61-.07,.1,.97c.07,.65,.24,1.16,.52,1.53,.18,.27,.47,.47,.86,.59,.28,.09,.98,.08,2.1-.04l14.26-1.53c1.14-.12,1.87-.27,2.17-.43,.3-.17,.51-.45,.62-.85,.07-.29,.05-.96-.07-2.01l-.2-1.87c-.13-1.19-.44-2.16-.95-2.9-.5-.75-1.24-1.36-2.2-1.84s-2.35-.89-4.17-1.21l-.07-.68Z"/>
    <path class="cls-1" d="M22.43,180.21c.07-3.59,1.27-6.44,3.62-8.55,2.35-2.11,5.19-3.08,8.52-2.89,2.85,.16,5.31,1.13,7.39,2.92,2.75,2.37,4.01,5.57,3.79,9.61-.23,4.04-1.77,7.1-4.63,9.15-2.26,1.63-4.88,2.36-7.85,2.19-3.34-.19-6.06-1.48-8.16-3.87-2.1-2.39-2.99-5.25-2.67-8.55Zm1.07-.14c-.11,2.06,.85,3.68,2.89,4.87,1.68,.97,4.13,1.54,7.35,1.72,3.83,.21,6.71-.3,8.62-1.55,1.33-.87,2.05-2.15,2.14-3.84,.06-1.14-.16-2.1-.67-2.9-.65-1.01-1.74-1.83-3.26-2.46s-3.53-1.01-6.03-1.15c-2.97-.17-5.21-.01-6.72,.46-1.51,.47-2.59,1.12-3.24,1.94-.66,.82-1.01,1.79-1.08,2.91Z"/>
    <path class="cls-1" d="M29.38,140.49l.6,.14c-.07,.75,.01,1.35,.25,1.81,.33,.64,1.37,1.78,3.12,3.41l6.85,6.58,5.31,1.22c1.13,.26,1.85,.36,2.15,.31,.3-.06,.6-.23,.89-.54,.29-.3,.5-.74,.64-1.33l.28-1.23,.6,.14-2.83,12.31-.6-.14,.26-1.15c.15-.65,.15-1.19,.01-1.62-.09-.31-.29-.6-.62-.84-.23-.18-.9-.39-2-.65l-4.4-1.01-10.59,3c-2.09,.6-3.35,1.07-3.77,1.42-.43,.34-.72,.87-.9,1.57l-.6-.14,2.42-10.52,.6,.14-.11,.47c-.15,.64-.16,1.1-.03,1.4,.13,.3,.29,.47,.5,.51,.39,.09,1.46-.12,3.23-.62l8.18-2.29-5.71-5.47c-1.39-1.35-2.35-2.09-2.88-2.21-.29-.07-.57,.02-.82,.25-.35,.31-.67,.94-.95,1.91l-.6-.14,1.54-6.7Z"/>
    <path class="cls-1" d="M35.03,129.43l8.5,3.44,.17-.42c.54-1.32,.51-2.45-.08-3.38-.59-.93-1.66-1.81-3.22-2.63l.24-.58,10.93,4.42-.24,.58c-1.24-.36-2.32-.49-3.24-.41s-1.62,.34-2.09,.76c-.47,.42-.91,1.12-1.31,2.12l5.88,2.38c1.15,.46,1.87,.7,2.17,.71,.3,0,.58-.09,.85-.29,.27-.2,.53-.6,.77-1.19l.5-1.25c.79-1.95,.97-3.69,.54-5.23-.43-1.54-1.46-2.94-3.1-4.2l.23-.57,6.25,3.62-7.3,18.04-.57-.23,.28-.69c.24-.61,.33-1.14,.27-1.59-.04-.32-.2-.63-.49-.91-.2-.21-.82-.53-1.87-.95l-13.73-5.55c-.94-.38-1.53-.59-1.77-.63-.4-.04-.75,.04-1.06,.23-.44,.27-.8,.75-1.08,1.43l-.28,.69-.57-.23,7.07-17.47,6.17,2.5-.24,.58c-1.63-.31-2.88-.33-3.75-.06s-1.67,.84-2.37,1.7c-.42,.5-.95,1.54-1.58,3.12l-.87,2.15Z"/>
    <path class="cls-1" d="M45.86,106.89l7.88,4.68,.23-.39c.73-1.23,.87-2.35,.43-3.36-.44-1.01-1.37-2.04-2.78-3.08l.32-.54,10.13,6.02-.32,.54c-1.17-.54-2.22-.84-3.14-.89-.92-.05-1.65,.09-2.18,.43s-1.07,.97-1.62,1.9l5.45,3.24c1.07,.63,1.74,.98,2.04,1.03,.29,.05,.59,0,.89-.16s.61-.51,.94-1.06l.69-1.16c1.07-1.81,1.52-3.51,1.33-5.09-.19-1.59-1-3.13-2.43-4.62l.31-.53,5.64,4.52-9.94,16.73-.53-.31,.38-.64c.33-.56,.5-1.07,.51-1.53,.01-.33-.1-.65-.35-.98-.17-.24-.73-.65-1.71-1.23l-12.73-7.56c-.88-.52-1.43-.82-1.66-.89-.39-.1-.75-.08-1.08,.07-.48,.2-.91,.62-1.28,1.25l-.38,.64-.53-.31,9.62-16.2,5.72,3.4-.32,.54c-1.56-.55-2.8-.76-3.7-.62-.91,.14-1.77,.58-2.6,1.32-.49,.43-1.17,1.38-2.04,2.84l-1.19,2Z"/>
    <path class="cls-1" d="M78.94,86.87l-5.34,5.89,.99,2.17c.33,.72,.68,1.24,1.03,1.56,.47,.42,.98,.55,1.55,.37,.33-.1,.92-.56,1.78-1.37l.46,.41-5.03,5.55-.46-.41c.45-.68,.65-1.4,.59-2.15s-.46-1.99-1.22-3.71l-7.9-18.03,.21-.23,19.13,6.38c1.82,.6,3.06,.87,3.73,.8,.51-.05,1.01-.31,1.51-.78l.46,.41-7.31,8.07-.46-.41,.3-.33c.59-.65,.91-1.18,.97-1.61,.03-.3-.07-.56-.32-.78-.15-.13-.32-.25-.52-.34-.09-.05-.51-.21-1.26-.47l-2.88-1Zm-1.29-.41l-8-2.72,3.43,7.77,4.57-5.04Z"/>
    <path class="cls-1" d="M90.44,54.72l3.9,4.68-.46,.38c-1.17-.85-2.12-1.38-2.85-1.57-.72-.2-1.49-.19-2.31,0-.45,.12-1.08,.51-1.89,1.18l-1.29,1.07,11.12,13.34c.74,.88,1.25,1.4,1.53,1.54,.28,.14,.63,.17,1.06,.1s.88-.31,1.37-.72l.57-.48,.39,.47-9.05,7.55-.39-.47,.57-.48c.5-.42,.83-.84,.99-1.28,.12-.3,.13-.65,.01-1.05-.08-.28-.48-.86-1.2-1.72l-11.12-13.34-1.25,1.04c-1.16,.97-1.8,1.92-1.92,2.86-.17,1.31,.19,2.68,1.05,4.11l-.48,.4-3.9-4.68,15.53-12.95Z"/>
    <path class="cls-1" d="M111.82,41.33l3.16,5.21-.51,.31c-1.03-1.02-1.89-1.68-2.58-1.98-.69-.3-1.45-.41-2.28-.34-.46,.05-1.14,.34-2.04,.89l-1.43,.87,9,14.85c.6,.98,1.02,1.57,1.28,1.75,.26,.18,.6,.27,1.03,.26,.43,0,.92-.18,1.47-.51l.64-.39,.32,.53-10.08,6.11-.32-.53,.64-.39c.56-.34,.95-.71,1.17-1.12,.17-.28,.22-.63,.17-1.03-.03-.29-.34-.92-.93-1.88l-9-14.85-1.39,.84c-1.3,.79-2.07,1.63-2.33,2.54-.36,1.27-.22,2.67,.43,4.23l-.54,.33-3.16-5.21,17.29-10.48Z"/>
    <path class="cls-1" d="M124.25,37.16l3.51,8.46,.41-.17c1.32-.55,2.1-1.36,2.35-2.43,.25-1.07,.12-2.45-.39-4.14l.58-.24,4.52,10.89-.58,.24c-.61-1.13-1.28-2-1.98-2.59-.71-.59-1.38-.91-2.01-.96-.63-.04-1.44,.14-2.43,.55l2.43,5.86c.47,1.15,.81,1.83,1.02,2.04,.2,.22,.47,.35,.81,.4,.33,.05,.8-.04,1.39-.29l1.24-.52c1.94-.81,3.31-1.9,4.11-3.29s1.07-3.1,.82-5.16l.57-.24,1.81,7-17.97,7.46-.24-.57,.69-.29c.6-.25,1.04-.56,1.32-.93,.21-.25,.31-.58,.31-.99,.01-.29-.2-.96-.63-2l-5.68-13.68c-.39-.94-.66-1.51-.8-1.7-.25-.31-.55-.51-.91-.59-.51-.12-1.1-.05-1.77,.23l-.69,.29-.24-.57,17.4-7.22,2.55,6.15-.58,.24c-.92-1.38-1.78-2.29-2.59-2.72s-1.77-.6-2.88-.5c-.65,.05-1.76,.41-3.33,1.06l-2.15,.89Z"/>
    <path class="cls-1" d="M146.96,27.93l14.05,11-2.25-9.41c-.31-1.31-.71-2.16-1.2-2.53-.67-.5-1.6-.6-2.82-.28l-.14-.6,7.23-1.73,.14,.6c-.9,.34-1.48,.64-1.75,.91-.27,.26-.45,.63-.52,1.1-.08,.47,0,1.22,.26,2.25l4.36,18.23-.55,.13-19.16-14.69,3.33,13.92c.3,1.26,.79,2.04,1.47,2.34s1.39,.37,2.14,.19l.52-.12,.14,.6-7.77,1.86-.14-.6c1.2-.3,1.98-.75,2.34-1.34,.36-.6,.4-1.48,.12-2.64l-3.69-15.45-.61-.47c-.6-.47-1.1-.75-1.5-.85-.4-.1-.93-.08-1.61,.06l-.14-.6,7.77-1.86Z"/>
    <path class="cls-1" d="M167.43,46.19l-.04-.61,.75-.05c.65-.05,1.14-.18,1.48-.41,.33-.23,.57-.53,.71-.89,.08-.24,.08-.94,0-2.1l-1.04-14.77c-.08-1.15-.19-1.86-.33-2.14-.14-.28-.41-.51-.79-.7-.39-.19-.89-.26-1.52-.22l-.75,.05-.04-.61,10.05-.71c2.68-.19,4.87,.02,6.55,.64,2.06,.75,3.67,2,4.83,3.74,1.16,1.74,1.82,3.75,1.98,6.03,.11,1.58-.04,3.05-.45,4.42-.41,1.37-.99,2.51-1.74,3.43-.74,.92-1.63,1.69-2.64,2.28-1.02,.6-2.28,1.1-3.78,1.49-.66,.18-1.72,.32-3.17,.42l-10.05,.71Zm7.07-21.78l1.24,17.52c.07,.93,.15,1.49,.25,1.7,.1,.2,.26,.35,.48,.45,.31,.14,.75,.2,1.31,.16,1.84-.13,3.21-.86,4.09-2.19,1.21-1.79,1.68-4.48,1.43-8.06-.2-2.88-.82-5.15-1.85-6.81-.81-1.3-1.8-2.15-2.96-2.55-.82-.29-2.15-.36-3.99-.22Z"/>
    <path class="cls-1" d="M205.28,39.4l-7.92-.73-1.14,2.1c-.38,.7-.58,1.29-.63,1.76-.06,.63,.15,1.11,.63,1.46,.28,.2,1,.4,2.16,.6l-.06,.61-7.46-.69,.06-.61c.82-.05,1.51-.32,2.08-.82,.57-.5,1.31-1.57,2.23-3.2l9.66-17.15,.31,.03,6.4,19.13c.61,1.81,1.14,2.97,1.6,3.46,.34,.38,.85,.62,1.53,.74l-.06,.61-10.84-1,.06-.61,.45,.04c.87,.08,1.49,.02,1.87-.19,.26-.15,.4-.4,.43-.73,.02-.2,0-.41-.04-.62-.01-.1-.14-.53-.38-1.29l-.93-2.9Zm-.45-1.28l-2.63-8.03-4.15,7.4,6.78,.62Z"/>
    <path class="cls-1" d="M228.1,26.95l7.21,16.32,2.45-9.36c.34-1.31,.39-2.24,.13-2.8-.35-.76-1.13-1.28-2.35-1.58l.16-.59,7.19,1.88-.16,.59c-.95-.12-1.61-.13-1.97-.03-.37,.1-.69,.35-.98,.72-.29,.38-.57,1.08-.83,2.11l-4.75,18.13-.55-.14-9.98-21.99-3.62,13.84c-.33,1.25-.26,2.17,.19,2.76,.46,.59,1.06,.98,1.79,1.17l.51,.13-.16,.59-7.72-2.02,.16-.59c1.2,.3,2.1,.28,2.7-.08,.6-.36,1.05-1.12,1.35-2.27l4.02-15.37-.31-.7c-.31-.7-.62-1.19-.92-1.46-.31-.27-.79-.51-1.45-.71l.16-.59,7.72,2.02Z"/>
    <path class="cls-1" d="M267.28,40.78l-3.19,7.12-.59-.26c.39-2.06,.2-3.85-.57-5.39-.77-1.53-1.92-2.64-3.46-3.33-1.28-.57-2.62-.73-4.03-.48-1.4,.26-2.62,.87-3.64,1.84-1.32,1.24-2.4,2.79-3.23,4.66-.82,1.84-1.34,3.62-1.55,5.33-.21,1.72,0,3.19,.65,4.4,.64,1.22,1.75,2.18,3.33,2.88,1.29,.58,2.6,.83,3.93,.74,1.33-.08,2.9-.55,4.71-1.4l-.79,1.77c-1.69,.69-3.28,1.02-4.77,1s-3.07-.4-4.73-1.15c-2.19-.98-3.94-2.29-5.25-3.93s-2.06-3.49-2.24-5.55c-.19-2.06,.14-4.02,.97-5.88,.88-1.96,2.22-3.59,4.03-4.89,1.81-1.3,3.81-2.04,5.98-2.23s4.24,.15,6.2,1.03c1.44,.65,2.83,1.64,4.16,2.99,.77,.78,1.28,1.23,1.53,1.34,.32,.15,.66,.15,1,.02,.34-.13,.67-.44,.97-.92l.59,.26Z"/>
    <path class="cls-1" d="M278.15,49.52l-5.01,7.67,.38,.25c1.2,.78,2.31,.97,3.33,.57,1.03-.4,2.09-1.28,3.2-2.65l.53,.35-6.44,9.87-.53-.34c.59-1.15,.93-2.18,1.02-3.1,.09-.92-.02-1.65-.34-2.2s-.93-1.11-1.83-1.7l-3.47,5.31c-.68,1.04-1.05,1.7-1.11,1.99-.06,.29-.02,.59,.12,.89s.48,.63,1.02,.98l1.13,.73c1.76,1.15,3.44,1.66,5.03,1.54,1.59-.12,3.17-.87,4.72-2.23l.51,.34-4.76,5.44-16.29-10.64,.34-.51,.63,.41c.55,.36,1.05,.55,1.51,.57,.33,.03,.66-.07,.99-.3,.25-.16,.68-.71,1.3-1.65l8.1-12.4c.56-.85,.88-1.39,.96-1.62,.12-.38,.11-.75-.02-1.09-.18-.49-.58-.93-1.19-1.33l-.63-.41,.34-.51,15.78,10.3-3.64,5.57-.53-.34c.62-1.54,.88-2.76,.78-3.67-.1-.91-.5-1.8-1.21-2.65-.41-.51-1.33-1.22-2.76-2.16l-1.95-1.27Z"/>
    <path class="cls-1" d="M300.42,85.42l15-5.72,6.28,6.67-.45,.42-.5-.53c-.46-.48-.9-.79-1.35-.92-.3-.1-.64-.08-1.02,.05-.28,.09-.82,.52-1.64,1.29l-10.81,10.17c-.84,.79-1.32,1.33-1.45,1.61-.13,.29-.14,.64-.04,1.06s.37,.86,.8,1.32l.5,.53-.45,.42-8.05-8.56,.45-.42,.5,.53c.46,.48,.9,.79,1.35,.92,.3,.1,.65,.07,1.04-.06,.28-.09,.83-.53,1.65-1.3l12.15-11.43-20.87,7.78-.27-.29,8.84-20.35-11.55,10.86c-.81,.76-1.28,1.25-1.43,1.46-.3,.48-.42,1.02-.34,1.61,.08,.59,.47,1.26,1.17,2.01l-.45,.42-5.28-5.61,.45-.42,.16,.17c.33,.37,.71,.65,1.13,.85,.42,.2,.81,.28,1.17,.24,.36-.04,.77-.19,1.24-.46,.1-.07,.52-.45,1.26-1.14l10.37-9.76c.83-.78,1.31-1.31,1.43-1.59s.13-.63,.03-1.06-.37-.86-.8-1.32l-.49-.52,.45-.42,6.3,6.7-6.48,14.78Z"/>
    <path class="cls-1" d="M331.21,100.6c2.02,2.97,2.69,5.99,1.99,9.07s-2.45,5.51-5.28,7.29c-2.42,1.52-4.99,2.15-7.72,1.89-3.61-.34-6.5-2.22-8.65-5.64-2.16-3.43-2.66-6.81-1.51-10.15,.91-2.64,2.62-4.74,5.14-6.33,2.83-1.78,5.79-2.3,8.89-1.56s5.48,2.55,7.13,5.43Zm-.79,.73c-1.1-1.74-2.82-2.51-5.17-2.3-1.93,.18-4.26,1.13-7,2.85-3.25,2.04-5.3,4.13-6.13,6.25-.59,1.48-.43,2.94,.47,4.37,.61,.96,1.35,1.62,2.22,1.98,1.12,.45,2.48,.49,4.08,.12,1.6-.37,3.47-1.22,5.58-2.55,2.52-1.58,4.26-3,5.22-4.26,.96-1.25,1.46-2.41,1.52-3.46,.06-1.05-.21-2.05-.8-2.99Z"/>
    <path class="cls-1" d="M342.53,122.5l-8.68,15.59,8.95-3.69c1.25-.51,2.02-1.04,2.31-1.58,.39-.74,.34-1.68-.16-2.83l.57-.23,2.83,6.88-.57,.23c-.48-.83-.87-1.36-1.17-1.59s-.69-.34-1.17-.35c-.47,0-1.2,.2-2.18,.6l-17.33,7.14-.21-.52,11.53-21.22-13.23,5.45c-1.2,.49-1.89,1.1-2.09,1.82s-.15,1.43,.15,2.14l.2,.49-.57,.23-3.04-7.38,.57-.23c.48,1.14,1.05,1.84,1.69,2.1,.65,.26,1.52,.16,2.63-.29l14.69-6.05,.37-.67c.37-.67,.57-1.21,.61-1.62,.03-.41-.07-.94-.31-1.58l.57-.23,3.04,7.38Z"/>
    <path class="cls-1" d="M331.13,157.28l-.59,.16-3.07-11.36,.59-.16,.2,.72c.17,.63,.42,1.11,.75,1.43,.22,.24,.54,.38,.94,.43,.29,.05,.98-.08,2.07-.37l14.29-3.87c1.11-.3,1.79-.55,2.04-.74s.42-.5,.54-.91c.11-.41,.08-.93-.08-1.54l-.19-.72,.59-.16,3.07,11.36-.59,.16-.2-.72c-.17-.63-.42-1.11-.75-1.43-.23-.24-.54-.39-.95-.45-.29-.05-.98,.08-2.07,.37l-14.29,3.87c-1.11,.3-1.79,.55-2.03,.75-.24,.2-.42,.5-.53,.92-.11,.41-.08,.93,.08,1.54l.2,.72Z"/>
    <path class="cls-1" d="M356.24,175.51l-6.03,.87-.09-.59c1.34-.55,2.28-1.08,2.83-1.6,.55-.51,.95-1.17,1.2-1.97,.14-.44,.13-1.19-.02-2.23l-.24-1.66-17.19,2.48c-1.14,.16-1.84,.33-2.11,.5-.27,.17-.48,.45-.64,.85s-.19,.91-.1,1.55l.11,.74-.61,.09-1.69-11.67,.61-.09,.11,.74c.09,.65,.28,1.15,.57,1.51,.19,.26,.49,.45,.89,.56,.28,.08,.98,.04,2.1-.12l17.19-2.48-.23-1.61c-.22-1.5-.69-2.54-1.43-3.13-1.02-.82-2.38-1.24-4.06-1.26l-.09-.62,6.03-.87,2.89,20.01Z"/>
    <path class="cls-1" d="M356.81,191.96c.07,3.59-1.02,6.48-3.28,8.69-2.26,2.21-5.06,3.28-8.4,3.23-2.85-.05-5.35-.92-7.5-2.63-2.84-2.26-4.23-5.41-4.16-9.45,.07-4.05,1.49-7.16,4.27-9.33,2.2-1.71,4.78-2.55,7.76-2.5,3.34,.05,6.11,1.24,8.3,3.55,2.19,2.31,3.2,5.12,3.01,8.44Zm-1.07,.18c.03-2.06-.99-3.64-3.08-4.75-1.71-.9-4.18-1.38-7.42-1.43-3.84-.06-6.69,.57-8.55,1.89-1.3,.92-1.96,2.23-1.99,3.92-.02,1.14,.24,2.1,.78,2.87,.69,.98,1.81,1.76,3.36,2.33s3.57,.87,6.07,.91c2.98,.05,5.21-.19,6.69-.72,1.49-.53,2.54-1.22,3.16-2.07,.62-.85,.94-1.83,.96-2.95Z"/>
    <path class="cls-1" d="M342.23,214.79l-6.2-1.16c-1.2-.22-1.96-.29-2.3-.2-.34,.09-.63,.3-.89,.64s-.48,1.01-.66,2.02l-.6-.11,2.12-11.33,.6,.11c-.19,1.02-.23,1.73-.1,2.13,.12,.4,.32,.7,.6,.91,.28,.2,1.01,.42,2.21,.64l14.36,2.68c1.2,.22,1.96,.29,2.3,.2,.34-.09,.63-.3,.89-.64,.25-.34,.48-1.01,.66-2.02l.6,.11-1.92,10.28c-.5,2.68-1.05,4.6-1.65,5.77-.6,1.17-1.47,2.06-2.62,2.65-1.14,.6-2.38,.77-3.72,.52-1.63-.3-2.87-1.14-3.72-2.52-.53-.88-.84-2.02-.93-3.43l-8.48,3.92c-1.1,.52-1.79,.9-2.09,1.15-.42,.38-.7,.87-.84,1.45l-.6-.11,1.3-6.97,11.42-5.25,.27-1.45Zm10.85,2.03l-9.69-1.81-.17,.93c-.28,1.51-.36,2.67-.22,3.47,.14,.8,.53,1.49,1.17,2.05,.64,.56,1.55,.96,2.71,1.17,1.69,.31,3.01,.15,3.96-.48,.95-.64,1.59-1.83,1.92-3.58l.33-1.75Z"/>
    <path class="cls-1" d="M325.88,239.46l-.58-.19,3.61-11.2,.58,.19-.23,.71c-.2,.62-.25,1.16-.15,1.61,.06,.32,.24,.61,.55,.88,.22,.2,.86,.47,1.94,.82l14.1,4.54c1.1,.35,1.8,.52,2.11,.49,.31-.03,.63-.18,.95-.47,.32-.29,.58-.73,.77-1.33l.23-.71,.58,.19-3.61,11.2-.58-.19,.23-.71c.2-.62,.25-1.16,.15-1.61-.06-.32-.24-.62-.55-.89-.22-.2-.86-.47-1.94-.82l-14.1-4.54c-1.1-.35-1.8-.51-2.11-.48-.31,.03-.63,.19-.95,.48-.32,.29-.58,.73-.77,1.33l-.23,.71Z"/>
    <path class="cls-1" d="M342.42,256.74l-17.36,4.13,8.76,4.11c1.22,.57,2.13,.79,2.73,.64,.81-.21,1.47-.88,1.98-2.03l.56,.26-3.16,6.73-.56-.26c.29-.91,.42-1.56,.39-1.94-.04-.38-.21-.74-.53-1.09s-.96-.75-1.92-1.2l-16.97-7.96,.24-.51,23.43-5.83-12.96-6.07c-1.17-.55-2.09-.65-2.75-.31-.66,.34-1.16,.86-1.48,1.55l-.23,.48-.56-.26,3.39-7.23,.56,.26c-.52,1.13-.65,2.02-.41,2.67,.24,.65,.91,1.23,1.99,1.74l14.39,6.74,.75-.18c.74-.18,1.28-.39,1.6-.64,.33-.25,.64-.68,.96-1.29l.56,.26-3.39,7.23Z"/>
    <path class="cls-1" d="M321.21,293.43l-6.51-4.53,.35-.5c2.2,.63,4.19,.66,5.97,.09s3.16-1.58,4.17-3.02c.96-1.38,1.37-2.8,1.24-4.26-.14-1.46-.77-2.86-1.89-4.21-1.12-1.35-2.42-2.53-3.88-3.55-1.77-1.23-3.47-2.11-5.1-2.62-1.63-.51-3.08-.52-4.35-.03-1.27,.49-2.36,1.38-3.25,2.66-.31,.45-.58,.94-.81,1.47-.23,.53-.43,1.11-.59,1.73l3.84,2.67c.73,.51,1.23,.78,1.51,.83,.28,.05,.62-.02,1.01-.22s.74-.51,1.05-.96l.33-.48,.5,.35-6.25,8.98-.5-.35c.43-.71,.67-1.25,.71-1.62,.05-.37-.04-.73-.27-1.11-.12-.2-.51-.54-1.18-1.01l-3.84-2.67c.3-1.55,.75-3.05,1.37-4.52s1.41-2.88,2.36-4.25c1.22-1.75,2.47-3.04,3.76-3.87,1.28-.83,2.62-1.41,4.01-1.76,1.39-.34,2.75-.43,4.07-.25,1.7,.24,3.32,.9,4.87,1.98,2.78,1.94,4.45,4.54,5,7.83,.56,3.29-.2,6.41-2.26,9.37-.64,.92-1.29,1.69-1.94,2.33-.35,.35-1.01,.85-1.97,1.51-.96,.66-1.5,1.07-1.62,1.23-.18,.25-.25,.55-.21,.9,.03,.35,.25,.79,.64,1.33l-.35,.5Z"/>
  </g>
  <circle class="cls-1" cx="189.5" cy="189.5" r="133.5"/>
  <path d="M260.26,274.27H118.74c-7.72,0-14.01-6.28-14.01-14.01V118.74c0-7.72,6.28-14.01,14.01-14.01h141.52c7.72,0,14.01,6.28,14.01,14.01v141.52c0,7.73-6.28,14.01-14.01,14.01ZM118.74,106.73c-6.62,0-12.01,5.39-12.01,12.01v141.52c0,6.62,5.39,12.01,12.01,12.01h141.52c6.62,0,12.01-5.39,12.01-12.01V118.74c0-6.62-5.39-12.01-12.01-12.01H118.74Z"/>
  <rect x="105.73" y="128.1" width="167.54" height="2"/>
  <rect x="124.79" y="93.15" width="9.79" height="25.17" rx="4.89" ry="4.89"/>
  <rect x="244.28" y="93.15" width="9.79" height="25.17" rx="4.89" ry="4.89"/>
  <g>
    <path d="M129.91,179.93v13.47h.66c2.1,0,3.62-.66,4.56-1.98,.94-1.32,1.55-3.26,1.81-5.83h.93v17.33h-.93c-.2-1.89-.61-3.43-1.23-4.64-.63-1.2-1.35-2.01-2.18-2.43-.83-.42-2.03-.62-3.61-.62v9.32c0,1.82,.08,2.94,.23,3.34,.15,.41,.44,.74,.87,1,.42,.26,1.11,.39,2.05,.39h1.98c3.09,0,5.57-.72,7.43-2.15,1.86-1.43,3.2-3.61,4.02-6.54h.9l-1.49,10.52h-28.61v-.9h1.1c.96,0,1.73-.17,2.32-.51,.42-.23,.75-.62,.98-1.17,.18-.39,.27-1.42,.27-3.08v-21.77c0-1.5-.04-2.42-.12-2.76-.16-.57-.46-1.01-.9-1.32-.62-.46-1.46-.68-2.54-.68h-1.1v-.9h27.7v9.79h-.93c-.47-2.39-1.13-4.11-1.99-5.15-.85-1.04-2.06-1.81-3.62-2.29-.91-.29-2.62-.44-5.13-.44h-3.42Z"/>
    <path d="M170.42,201.7h-11.69l-1.39,3.22c-.46,1.07-.68,1.96-.68,2.66,0,.93,.37,1.61,1.12,2.05,.44,.26,1.52,.46,3.25,.59v.9h-11.01v-.9c1.19-.18,2.16-.67,2.93-1.48,.76-.81,1.71-2.47,2.83-4.99l11.84-26.41h.46l11.94,27.14c1.14,2.57,2.07,4.19,2.81,4.86,.55,.5,1.33,.8,2.34,.88v.9h-16.01v-.9h.66c1.29,0,2.19-.18,2.71-.54,.36-.26,.54-.63,.54-1.12,0-.29-.05-.59-.15-.9-.03-.15-.28-.76-.73-1.83l-1.76-4.12Zm-.83-1.81l-4.93-11.4-5.08,11.4h10.01Z"/>
    <path d="M209.55,199.85l8.98-21.82h13.47v.9h-1.07c-.98,0-1.76,.17-2.34,.51-.41,.23-.73,.61-.98,1.15-.18,.39-.27,1.41-.27,3.05v21.82c0,1.69,.09,2.75,.27,3.17,.18,.42,.54,.79,1.1,1.11,.55,.32,1.29,.48,2.22,.48h1.07v.9h-17.28v-.9h1.07c.98,0,1.76-.17,2.34-.51,.41-.23,.73-.62,.98-1.17,.18-.39,.27-1.42,.27-3.08v-24.53l-12.69,30.19h-.59l-12.89-29.97v23.31c0,1.63,.04,2.63,.12,3,.21,.81,.67,1.48,1.38,1.99,.71,.51,1.82,.77,3.33,.77v.9h-11.33v-.9h.34c.73,.02,1.42-.1,2.05-.35,.63-.25,1.11-.59,1.44-1.01,.33-.42,.58-1.02,.76-1.78,.03-.18,.05-1.01,.05-2.49v-20.94c0-1.68-.09-2.72-.27-3.14s-.55-.78-1.1-1.1c-.55-.32-1.29-.48-2.22-.48h-1.05v-.9h13.52l9.3,21.82Z"/>
    <path d="M256.39,177.27l.27,11.03h-1c-.47-2.77-1.63-4.99-3.48-6.68s-3.84-2.53-5.99-2.53c-1.66,0-2.97,.44-3.94,1.33-.97,.89-1.45,1.91-1.45,3.06,0,.73,.17,1.38,.51,1.95,.47,.77,1.23,1.52,2.27,2.27,.76,.54,2.53,1.49,5.3,2.86,3.87,1.9,6.48,3.7,7.83,5.39,1.33,1.69,2,3.63,2,5.81,0,2.77-1.08,5.15-3.23,7.14-2.16,1.99-4.89,2.99-8.21,2.99-1.04,0-2.03-.11-2.95-.32-.93-.21-2.09-.61-3.49-1.2-.78-.33-1.42-.49-1.93-.49-.42,0-.87,.16-1.34,.49-.47,.33-.85,.82-1.15,1.49h-.9v-12.5h.9c.72,3.51,2.1,6.2,4.14,8.04,2.04,1.85,4.24,2.77,6.6,2.77,1.82,0,3.27-.5,4.36-1.49,1.08-.99,1.62-2.15,1.62-3.47,0-.78-.21-1.54-.62-2.27s-1.05-1.43-1.89-2.09-2.34-1.52-4.49-2.58c-3.01-1.48-5.17-2.74-6.49-3.78-1.32-1.04-2.33-2.2-3.04-3.49-.71-1.29-1.06-2.7-1.06-4.25,0-2.64,.97-4.88,2.9-6.74,1.94-1.86,4.38-2.78,7.32-2.78,1.07,0,2.11,.13,3.12,.39,.76,.2,1.7,.56,2.79,1.09,1.1,.53,1.87,.79,2.31,.79s.76-.13,1-.39,.47-.89,.68-1.88h.73Z"/>
  </g>
</svg>